+ filenameToUse=/home/horvathandras/vatic/vatic/public/videouploads/DJI_0578_30m_szarvasragott_traktortaposott._Vaskut_20180602_napos_napraforgo_T3.avi
+ filenameNoDot=DJI_0578_30m_szarvasragott_traktortaposott._Vaskut_20180602_napos_napraforgo_T3
+ FullUploadPath=/home/horvathandras/vatic/vatic/public/videouploads/DJI_0578_30m_szarvasragott_traktortaposott._Vaskut_20180602_napos_napraforgo_T3.avi
+ VideoDataDir=/home/horvathandras/vatic/vatic/videos
+ AvailableObjectTypes='PozitívROI NegatívROI Túrás ~Friss ~1-2Hetes ~Régebbi ~Egyéb1 ~Egyéb2 ~Egyéb3 Rágás ~Friss ~1-2Hetes ~Régebbi ~Egyéb1 ~Egyéb2 ~Egyéb3 Törés ~Friss ~1-2Hetes ~Régebbi ~Egyéb1 ~Egyéb2 ~Egyéb3 Taposás ~Friss ~1-2Hetes ~Régebbi ~Egyéb1 ~Egyéb2 ~Egyéb3 EgészségesNövény Egyéb1 Egyéb2 Egyéb3 Egyéb4 Egyéb5 Bizonytalan Művelőút Gktaposás Vetőhiba Széldöntés Jégkár Belvíz Aszály Erózió EgyszikűGyom KétszikűGyom EgyébNövvédelmiPR'
++ dirname /home/horvathandras/vatic/vatic/vatic_publisher.sh
+ cd /home/horvathandras/vatic/vatic
+ touch /home/horvathandras/vatic/vatic/public/videouploads/DJI_0578_30m_szarvasragott_traktortaposott._Vaskut_20180602_napos_napraforgo_T3.avi
+ chmod 744 /home/horvathandras/vatic/vatic/public/videouploads/DJI_0578_30m_szarvasragott_traktortaposott._Vaskut_20180602_napos_napraforgo_T3.avi
+ mkdir /home/horvathandras/vatic/vatic/videos/DJI_0578_30m_szarvasragott_traktortaposott._Vaskut_20180602_napos_napraforgo_T3
+ turkic extract /home/horvathandras/vatic/vatic/public/videouploads/DJI_0578_30m_szarvasragott_traktortaposott._Vaskut_20180602_napos_napraforgo_T3.avi /home/horvathandras/vatic/vatic/videos/DJI_0578_30m_szarvasragott_traktortaposott._Vaskut_20180602_napos_napraforgo_T3 --no-resize
ffmpeg version 2.8.14-0ubuntu0.16.04.1 Copyright (c) 2000-2018 the FFmpeg developers
  built with gcc 5.4.0 (Ubuntu 5.4.0-6ubuntu1~16.04.9) 20160609
  configuration: --prefix=/usr --extra-version=0ubuntu0.16.04.1 --build-suffix=-ffmpeg --toolchain=hardened --libdir=/usr/lib/x86_64-linux-gnu --incdir=/usr/include/x86_64-linux-gnu --cc=cc --cxx=g++ --enable-gpl --enable-shared --disable-stripping --disable-decoder=libopenjpeg --disable-decoder=libschroedinger --enable-avresample --enable-avisynth --enable-gnutls --enable-ladspa --enable-libass --enable-libbluray --enable-libbs2b --enable-libcaca --enable-libcdio --enable-libflite --enable-libfontconfig --enable-libfreetype --enable-libfribidi --enable-libgme --enable-libgsm --enable-libmodplug --enable-libmp3lame --enable-libopenjpeg --enable-libopus --enable-libpulse --enable-librtmp --enable-libschroedinger --enable-libshine --enable-libsnappy --enable-libsoxr --enable-libspeex --enable-libssh --enable-libtheora --enable-libtwolame --enable-libvorbis --enable-libvpx --enable-libwavpack --enable-libwebp --enable-libx265 --enable-libxvid --enable-libzvbi --enable-openal --enable-opengl --enable-x11grab --enable-libdc1394 --enable-libiec61883 --enable-libzmq --enable-frei0r --enable-libx264 --enable-libopencv
  libavutil      54. 31.100 / 54. 31.100
  libavcodec     56. 60.100 / 56. 60.100
  libavformat    56. 40.101 / 56. 40.101
  libavdevice    56.  4.100 / 56.  4.100
  libavfilter     5. 40.101 /  5. 40.101
  libavresample   2.  1.  0 /  2.  1.  0
  libswscale      3.  1.101 /  3.  1.101
  libswresample   1.  2.101 /  1.  2.101
  libpostproc    53.  3.100 / 53.  3.100
Input #0, mov,mp4,m4a,3gp,3g2,mj2, from '/home/horvathandras/vatic/vatic/public/videouploads/DJI_0578_30m_szarvasragott_traktortaposott._Vaskut_20180602_napos_napraforgo_T3.avi':
  Metadata:
    major_brand     : qt  
    minor_version   : 537986816
    compatible_brands: qt  
    creation_time   : 2018-06-02 08:09:36
    location        : +46.091439+18.981018+30.200
    location-{    : +46.091439+18.981018+30.200
    comment         : DE=None, Mode=P, DSW=0001
  Duration: 00:00:37.75, start: 0.000000, bitrate: 100501 kb/s
    Stream #0:0(eng): Video: h264 (High) (avc1 / 0x31637661), yuv420p(tv, bt709), 4096x2160 [SAR 1:1 DAR 256:135], 100415 kb/s, 59.94 fps, 59.94 tbr, 60k tbn, 119.88 tbc (default)
    Metadata:
      creation_time   : 2018-06-02 08:09:36
      handler_name    : DJI.AVC
      encoder         : AVC encoder
    Stream #0:1(eng): Data: none (priv / 0x76697270), 78 kb/s
    Metadata:
      creation_time   : 2018-06-02 08:09:36
      handler_name    : DJI.Meta
Please use -b:a or -b:v, -b is ambiguous
[swscaler @ 0x21b1b20] deprecated pixel format used, make sure you did set range correctly
Output #0, image2, to '/tmp/pyvision-ffmpeg-806536959/%d.jpg':
  Metadata:
    major_brand     : qt  
    minor_version   : 537986816
    compatible_brands: qt  
    comment         : DE=None, Mode=P, DSW=0001
    location        : +46.091439+18.981018+30.200
    location-{    : +46.091439+18.981018+30.200
    encoder         : Lavf56.40.101
    Stream #0:0(eng): Video: mjpeg, yuvj420p(pc), 4096x2160 [SAR 1:1 DAR 256:135], q=2-31, 10000 kb/s, 59.94 fps, 59.94 tbn, 59.94 tbc (default)
    Metadata:
      creation_time   : 2018-06-02 08:09:36
      handler_name    : DJI.AVC
      encoder         : Lavc56.60.100 mjpeg
Stream mapping:
  Stream #0:0 -> #0:0 (h264 (native) -> mjpeg (native))
Press [q] to stop, [?] for help
frame=    2 fps=0.0 q=16.0 size=N/A time=00:00:00.03 bitrate=N/A    frame=    7 fps=6.4 q=24.8 size=N/A time=00:00:00.11 bitrate=N/A    frame=   13 fps=7.7 q=24.8 size=N/A time=00:00:00.21 bitrate=N/A    frame=   19 fps=8.3 q=24.8 size=N/A time=00:00:00.31 bitrate=N/A    frame=   25 fps=8.7 q=24.8 size=N/A time=00:00:00.41 bitrate=N/A    frame=   31 fps=8.9 q=24.8 size=N/A time=00:00:00.51 bitrate=N/A    frame=   37 fps=9.1 q=24.8 size=N/A time=00:00:00.61 bitrate=N/A    frame=   43 fps=9.2 q=24.8 size=N/A time=00:00:00.71 bitrate=N/A    frame=   49 fps=9.3 q=24.8 size=N/A time=00:00:00.81 bitrate=N/A    frame=   55 fps=9.4 q=24.8 size=N/A time=00:00:00.91 bitrate=N/A    frame=   61 fps=9.5 q=24.8 size=N/A time=00:00:01.01 bitrate=N/A    frame=   67 fps=9.5 q=24.8 size=N/A time=00:00:01.11 bitrate=N/A    frame=   73 fps=9.6 q=24.8 size=N/A time=00:00:01.21 bitrate=N/A    frame=   79 fps=9.6 q=24.8 size=N/A time=00:00:01.31 bitrate=N/A    frame=   85 fps=9.6 q=24.8 size=N/A time=00:00:01.41 bitrate=N/A    frame=   91 fps=9.7 q=24.8 size=N/A time=00:00:01.51 bitrate=N/A    frame=   97 fps=9.7 q=24.8 size=N/A time=00:00:01.61 bitrate=N/A    frame=  103 fps=9.7 q=24.8 size=N/A time=00:00:01.71 bitrate=N/A    frame=  109 fps=9.7 q=24.8 size=N/A time=00:00:01.81 bitrate=N/A    frame=  115 fps=9.8 q=24.8 size=N/A time=00:00:01.91 bitrate=N/A    frame=  121 fps=9.8 q=24.8 size=N/A time=00:00:02.01 bitrate=N/A    frame=  127 fps=9.8 q=24.8 size=N/A time=00:00:02.11 bitrate=N/A    frame=  133 fps=9.8 q=24.8 size=N/A time=00:00:02.21 bitrate=N/A    frame=  139 fps=9.8 q=24.8 size=N/A time=00:00:02.31 bitrate=N/A    frame=  145 fps=9.8 q=24.8 size=N/A time=00:00:02.41 bitrate=N/A    frame=  151 fps=9.8 q=24.8 size=N/A time=00:00:02.51 bitrate=N/A    frame=  157 fps=9.8 q=24.8 size=N/A time=00:00:02.61 bitrate=N/A    frame=  163 fps=9.9 q=24.8 size=N/A time=00:00:02.71 bitrate=N/A    frame=  169 fps=9.9 q=24.8 size=N/A time=00:00:02.81 bitrate=N/A    frame=  175 fps=9.9 q=24.8 size=N/A time=00:00:02.91 bitrate=N/A    frame=  181 fps=9.9 q=24.8 size=N/A time=00:00:03.01 bitrate=N/A    frame=  187 fps=9.9 q=24.8 size=N/A time=00:00:03.11 bitrate=N/A    frame=  193 fps=9.9 q=24.8 size=N/A time=00:00:03.21 bitrate=N/A    frame=  199 fps=9.9 q=24.8 size=N/A time=00:00:03.31 bitrate=N/A    frame=  205 fps=9.9 q=24.8 size=N/A time=00:00:03.42 bitrate=N/A    frame=  211 fps=9.9 q=24.8 size=N/A time=00:00:03.52 bitrate=N/A    frame=  217 fps=9.9 q=24.8 size=N/A time=00:00:03.62 bitrate=N/A    frame=  223 fps=9.9 q=24.8 size=N/A time=00:00:03.72 bitrate=N/A    frame=  229 fps=9.9 q=24.8 size=N/A time=00:00:03.82 bitrate=N/A    frame=  235 fps=9.9 q=24.8 size=N/A time=00:00:03.92 bitrate=N/A    frame=  241 fps=9.9 q=24.8 size=N/A time=00:00:04.02 bitrate=N/A    frame=  247 fps=9.9 q=24.8 size=N/A time=00:00:04.12 bitrate=N/A    frame=  253 fps=9.9 q=24.8 size=N/A time=00:00:04.22 bitrate=N/A    frame=  259 fps=9.9 q=24.8 size=N/A time=00:00:04.32 bitrate=N/A    frame=  265 fps=9.9 q=24.8 size=N/A time=00:00:04.42 bitrate=N/A    frame=  271 fps=9.9 q=24.8 size=N/A time=00:00:04.52 bitrate=N/A    frame=  276 fps=9.9 q=24.8 size=N/A time=00:00:04.60 bitrate=N/A    frame=  282 fps=9.9 q=24.8 size=N/A time=00:00:04.70 bitrate=N/A    frame=  288 fps=9.9 q=24.8 size=N/A time=00:00:04.80 bitrate=N/A    frame=  294 fps=9.9 q=24.8 size=N/A time=00:00:04.90 bitrate=N/A    frame=  300 fps= 10 q=24.8 size=N/A time=00:00:05.00 bitrate=N/A    frame=  306 fps= 10 q=24.8 size=N/A time=00:00:05.10 bitrate=N/A    frame=  312 fps= 10 q=24.8 size=N/A time=00:00:05.20 bitrate=N/A    frame=  318 fps= 10 q=24.8 size=N/A time=00:00:05.30 bitrate=N/A    frame=  323 fps= 10 q=24.8 size=N/A time=00:00:05.38 bitrate=N/A    frame=  329 fps= 10 q=24.8 size=N/A time=00:00:05.48 bitrate=N/A    frame=  335 fps= 10 q=24.8 size=N/A time=00:00:05.58 bitrate=N/A    frame=  341 fps= 10 q=24.8 size=N/A time=00:00:05.68 bitrate=N/A    frame=  347 fps= 10 q=24.8 size=N/A time=00:00:05.78 bitrate=N/A    frame=  353 fps= 10 q=24.8 size=N/A time=00:00:05.88 bitrate=N/A    frame=  359 fps= 10 q=24.8 size=N/A time=00:00:05.98 bitrate=N/A    frame=  365 fps= 10 q=24.8 size=N/A time=00:00:06.08 bitrate=N/A    frame=  371 fps= 10 q=24.8 size=N/A time=00:00:06.18 bitrate=N/A    frame=  377 fps= 10 q=24.8 size=N/A time=00:00:06.28 bitrate=N/A    frame=  383 fps= 10 q=24.8 size=N/A time=00:00:06.38 bitrate=N/A    frame=  389 fps= 10 q=24.8 size=N/A time=00:00:06.48 bitrate=N/A    frame=  395 fps= 10 q=24.8 size=N/A time=00:00:06.58 bitrate=N/A    frame=  401 fps= 10 q=24.8 size=N/A time=00:00:06.69 bitrate=N/A    frame=  407 fps= 10 q=24.8 size=N/A time=00:00:06.79 bitrate=N/A    frame=  413 fps= 10 q=24.8 size=N/A time=00:00:06.89 bitrate=N/A    frame=  419 fps= 10 q=24.8 size=N/A time=00:00:06.99 bitrate=N/A    frame=  425 fps= 10 q=24.8 size=N/A time=00:00:07.09 bitrate=N/A    frame=  431 fps= 10 q=24.8 size=N/A time=00:00:07.19 bitrate=N/A    frame=  437 fps= 10 q=24.8 size=N/A time=00:00:07.29 bitrate=N/A    frame=  443 fps= 10 q=24.8 size=N/A time=00:00:07.39 bitrate=N/A    frame=  449 fps= 10 q=24.8 size=N/A time=00:00:07.49 bitrate=N/A    frame=  455 fps= 10 q=24.8 size=N/A time=00:00:07.59 bitrate=N/A    frame=  461 fps= 10 q=24.8 size=N/A time=00:00:07.69 bitrate=N/A    frame=  467 fps= 10 q=24.8 size=N/A time=00:00:07.79 bitrate=N/A    frame=  473 fps= 10 q=24.8 size=N/A time=00:00:07.89 bitrate=N/A    frame=  479 fps= 10 q=24.8 size=N/A time=00:00:07.99 bitrate=N/A    frame=  485 fps= 10 q=24.8 size=N/A time=00:00:08.09 bitrate=N/A    frame=  491 fps= 10 q=24.8 size=N/A time=00:00:08.19 bitrate=N/A    frame=  497 fps= 10 q=24.8 size=N/A time=00:00:08.29 bitrate=N/A    frame=  503 fps= 10 q=24.8 size=N/A time=00:00:08.39 bitrate=N/A    frame=  509 fps= 10 q=24.8 size=N/A time=00:00:08.49 bitrate=N/A    frame=  515 fps= 10 q=24.8 size=N/A time=00:00:08.59 bitrate=N/A    frame=  521 fps= 10 q=24.8 size=N/A time=00:00:08.69 bitrate=N/A    frame=  526 fps= 10 q=24.8 size=N/A time=00:00:08.77 bitrate=N/A    frame=  532 fps= 10 q=24.8 size=N/A time=00:00:08.87 bitrate=N/A    frame=  538 fps= 10 q=24.8 size=N/A time=00:00:08.97 bitrate=N/A    frame=  544 fps= 10 q=24.8 size=N/A time=00:00:09.07 bitrate=N/A    frame=  550 fps= 10 q=24.8 size=N/A time=00:00:09.17 bitrate=N/A    frame=  556 fps= 10 q=24.8 size=N/A time=00:00:09.27 bitrate=N/A    frame=  562 fps= 10 q=24.8 size=N/A time=00:00:09.37 bitrate=N/A    frame=  568 fps= 10 q=24.8 size=N/A time=00:00:09.47 bitrate=N/A    frame=  574 fps= 10 q=24.8 size=N/A time=00:00:09.57 bitrate=N/A    frame=  579 fps= 10 q=24.8 size=N/A time=00:00:09.65 bitrate=N/A    frame=  585 fps= 10 q=24.8 size=N/A time=00:00:09.75 bitrate=N/A    frame=  591 fps= 10 q=24.8 size=N/A time=00:00:09.85 bitrate=N/A    frame=  597 fps= 10 q=24.8 size=N/A time=00:00:09.95 bitrate=N/A    frame=  603 fps= 10 q=24.8 size=N/A time=00:00:10.06 bitrate=N/A    frame=  609 fps= 10 q=24.8 size=N/A time=00:00:10.16 bitrate=N/A    frame=  615 fps= 10 q=24.8 size=N/A time=00:00:10.26 bitrate=N/A    frame=  621 fps= 10 q=24.8 size=N/A time=00:00:10.36 bitrate=N/A    frame=  627 fps= 10 q=24.8 size=N/A time=00:00:10.46 bitrate=N/A    frame=  633 fps= 10 q=24.8 size=N/A time=00:00:10.56 bitrate=N/A    frame=  639 fps= 10 q=24.8 size=N/A time=00:00:10.66 bitrate=N/A    frame=  645 fps= 10 q=24.8 size=N/A time=00:00:10.76 bitrate=N/A    frame=  651 fps= 10 q=24.8 size=N/A time=00:00:10.86 bitrate=N/A    frame=  657 fps= 10 q=24.8 size=N/A time=00:00:10.96 bitrate=N/A    frame=  663 fps= 10 q=24.8 size=N/A time=00:00:11.06 bitrate=N/A    frame=  669 fps= 10 q=24.8 size=N/A time=00:00:11.16 bitrate=N/A    frame=  675 fps= 10 q=24.8 size=N/A time=00:00:11.26 bitrate=N/A    frame=  680 fps= 10 q=24.8 size=N/A time=00:00:11.34 bitrate=N/A    frame=  686 fps= 10 q=24.8 size=N/A time=00:00:11.44 bitrate=N/A    frame=  692 fps= 10 q=24.8 size=N/A time=00:00:11.54 bitrate=N/A    frame=  698 fps= 10 q=24.8 size=N/A time=00:00:11.64 bitrate=N/A    frame=  704 fps= 10 q=24.8 size=N/A time=00:00:11.74 bitrate=N/A    frame=  710 fps= 10 q=24.8 size=N/A time=00:00:11.84 bitrate=N/A    frame=  716 fps= 10 q=24.8 size=N/A time=00:00:11.94 bitrate=N/A    frame=  722 fps= 10 q=24.8 size=N/A time=00:00:12.04 bitrate=N/A    frame=  728 fps= 10 q=24.8 size=N/A time=00:00:12.14 bitrate=N/A    frame=  734 fps= 10 q=24.8 size=N/A time=00:00:12.24 bitrate=N/A    frame=  740 fps= 10 q=24.8 size=N/A time=00:00:12.34 bitrate=N/A    frame=  746 fps= 10 q=24.8 size=N/A time=00:00:12.44 bitrate=N/A    frame=  752 fps= 10 q=24.8 size=N/A time=00:00:12.54 bitrate=N/A    frame=  757 fps= 10 q=24.8 size=N/A time=00:00:12.62 bitrate=N/A    frame=  763 fps= 10 q=24.8 size=N/A time=00:00:12.72 bitrate=N/A    frame=  769 fps= 10 q=24.8 size=N/A time=00:00:12.82 bitrate=N/A    frame=  775 fps= 10 q=24.8 size=N/A time=00:00:12.92 bitrate=N/A    frame=  780 fps= 10 q=24.8 size=N/A time=00:00:13.01 bitrate=N/A    frame=  785 fps= 10 q=24.8 size=N/A time=00:00:13.09 bitrate=N/A    frame=  791 fps= 10 q=24.8 size=N/A time=00:00:13.19 bitrate=N/A    frame=  796 fps= 10 q=24.8 size=N/A time=00:00:13.27 bitrate=N/A    frame=  802 fps= 10 q=24.8 size=N/A time=00:00:13.38 bitrate=N/A    frame=  807 fps= 10 q=24.8 size=N/A time=00:00:13.46 bitrate=N/A    frame=  812 fps= 10 q=24.8 size=N/A time=00:00:13.54 bitrate=N/A    frame=  817 fps= 10 q=24.8 size=N/A time=00:00:13.63 bitrate=N/A    frame=  823 fps= 10 q=24.8 size=N/A time=00:00:13.73 bitrate=N/A    frame=  828 fps= 10 q=24.8 size=N/A time=00:00:13.81 bitrate=N/A    frame=  834 fps= 10 q=24.8 size=N/A time=00:00:13.91 bitrate=N/A    frame=  839 fps= 10 q=24.8 size=N/A time=00:00:13.99 bitrate=N/A    frame=  844 fps= 10 q=24.8 size=N/A time=00:00:14.08 bitrate=N/A    frame=  849 fps= 10 q=24.8 size=N/A time=00:00:14.16 bitrate=N/A    frame=  855 fps= 10 q=24.8 size=N/A time=00:00:14.26 bitrate=N/A    frame=  861 fps= 10 q=24.8 size=N/A time=00:00:14.36 bitrate=N/A    frame=  867 fps= 10 q=24.8 size=N/A time=00:00:14.46 bitrate=N/A    frame=  872 fps= 10 q=24.8 size=N/A time=00:00:14.54 bitrate=N/A    frame=  877 fps= 10 q=24.8 size=N/A time=00:00:14.63 bitrate=N/A    frame=  882 fps= 10 q=24.8 size=N/A time=00:00:14.71 bitrate=N/A    frame=  887 fps= 10 q=24.8 size=N/A time=00:00:14.79 bitrate=N/A    frame=  893 fps= 10 q=24.8 size=N/A time=00:00:14.89 bitrate=N/A    frame=  898 fps= 10 q=24.8 size=N/A time=00:00:14.98 bitrate=N/A    frame=  903 fps= 10 q=24.8 size=N/A time=00:00:15.06 bitrate=N/A    frame=  908 fps= 10 q=24.8 size=N/A time=00:00:15.14 bitrate=N/A    frame=  914 fps= 10 q=24.8 size=N/A time=00:00:15.24 bitrate=N/A    frame=  920 fps= 10 q=24.8 size=N/A time=00:00:15.34 bitrate=N/A    frame=  926 fps= 10 q=24.8 size=N/A time=00:00:15.44 bitrate=N/A    frame=  931 fps= 10 q=24.8 size=N/A time=00:00:15.53 bitrate=N/A    frame=  936 fps= 10 q=24.8 size=N/A time=00:00:15.61 bitrate=N/A    frame=  941 fps= 10 q=24.8 size=N/A time=00:00:15.69 bitrate=N/A    frame=  947 fps= 10 q=24.8 size=N/A time=00:00:15.79 bitrate=N/A    frame=  953 fps= 10 q=24.8 size=N/A time=00:00:15.89 bitrate=N/A    frame=  958 fps= 10 q=24.8 size=N/A time=00:00:15.98 bitrate=N/A    frame=  963 fps= 10 q=24.8 size=N/A time=00:00:16.06 bitrate=N/A    frame=  968 fps= 10 q=24.8 size=N/A time=00:00:16.14 bitrate=N/A    frame=  974 fps= 10 q=24.8 size=N/A time=00:00:16.24 bitrate=N/A    frame=  979 fps= 10 q=24.8 size=N/A time=00:00:16.33 bitrate=N/A    frame=  984 fps= 10 q=24.8 size=N/A time=00:00:16.41 bitrate=N/A    frame=  990 fps= 10 q=24.8 size=N/A time=00:00:16.51 bitrate=N/A    frame=  995 fps= 10 q=24.8 size=N/A time=00:00:16.59 bitrate=N/A    frame= 1000 fps= 10 q=24.8 size=N/A time=00:00:16.68 bitrate=N/A    frame= 1005 fps= 10 q=24.8 size=N/A time=00:00:16.76 bitrate=N/A    frame= 1010 fps= 10 q=24.8 size=N/A time=00:00:16.85 bitrate=N/A    frame= 1015 fps= 10 q=24.8 size=N/A time=00:00:16.93 bitrate=N/A    frame= 1020 fps= 10 q=24.8 size=N/A time=00:00:17.01 bitrate=N/A    frame= 1025 fps= 10 q=24.8 size=N/A time=00:00:17.10 bitrate=N/A    frame= 1030 fps= 10 q=24.8 size=N/A time=00:00:17.18 bitrate=N/A    frame= 1035 fps= 10 q=24.8 size=N/A time=00:00:17.26 bitrate=N/A    frame= 1040 fps= 10 q=24.8 size=N/A time=00:00:17.35 bitrate=N/A    frame= 1045 fps= 10 q=24.8 size=N/A time=00:00:17.43 bitrate=N/A    frame= 1050 fps= 10 q=24.8 size=N/A time=00:00:17.51 bitrate=N/A    frame= 1055 fps= 10 q=24.8 size=N/A time=00:00:17.60 bitrate=N/A    frame= 1060 fps= 10 q=24.8 size=N/A time=00:00:17.68 bitrate=N/A    frame= 1065 fps= 10 q=24.8 size=N/A time=00:00:17.76 bitrate=N/A    frame= 1070 fps= 10 q=24.8 size=N/A time=00:00:17.85 bitrate=N/A    frame= 1075 fps= 10 q=24.8 size=N/A time=00:00:17.93 bitrate=N/A    frame= 1080 fps= 10 q=24.8 size=N/A time=00:00:18.01 bitrate=N/A    frame= 1085 fps= 10 q=24.8 size=N/A time=00:00:18.10 bitrate=N/A    frame= 1090 fps= 10 q=24.8 size=N/A time=00:00:18.18 bitrate=N/A    frame= 1095 fps= 10 q=24.8 size=N/A time=00:00:18.26 bitrate=N/A    frame= 1100 fps= 10 q=24.8 size=N/A time=00:00:18.35 bitrate=N/A    frame= 1105 fps= 10 q=24.8 size=N/A time=00:00:18.43 bitrate=N/A    frame= 1110 fps= 10 q=24.8 size=N/A time=00:00:18.51 bitrate=N/A    frame= 1115 fps= 10 q=24.8 size=N/A time=00:00:18.60 bitrate=N/A    frame= 1120 fps= 10 q=24.8 size=N/A time=00:00:18.68 bitrate=N/A    frame= 1125 fps= 10 q=24.8 size=N/A time=00:00:18.76 bitrate=N/A    frame= 1130 fps= 10 q=24.8 size=N/A time=00:00:18.85 bitrate=N/A    frame= 1135 fps= 10 q=24.8 size=N/A time=00:00:18.93 bitrate=N/A    frame= 1140 fps= 10 q=24.8 size=N/A time=00:00:19.01 bitrate=N/A    frame= 1145 fps= 10 q=24.8 size=N/A time=00:00:19.10 bitrate=N/A    frame= 1150 fps= 10 q=24.8 size=N/A time=00:00:19.18 bitrate=N/A    frame= 1155 fps= 10 q=24.8 size=N/A time=00:00:19.26 bitrate=N/A    frame= 1160 fps= 10 q=24.8 size=N/A time=00:00:19.35 bitrate=N/A    frame= 1165 fps= 10 q=24.8 size=N/A time=00:00:19.43 bitrate=N/A    frame= 1170 fps= 10 q=24.8 size=N/A time=00:00:19.51 bitrate=N/A    frame= 1175 fps= 10 q=24.8 size=N/A time=00:00:19.60 bitrate=N/A    frame= 1180 fps= 10 q=24.8 size=N/A time=00:00:19.68 bitrate=N/A    frame= 1185 fps= 10 q=24.8 size=N/A time=00:00:19.76 bitrate=N/A    frame= 1190 fps= 10 q=24.8 size=N/A time=00:00:19.85 bitrate=N/A    frame= 1195 fps= 10 q=24.8 size=N/A time=00:00:19.93 bitrate=N/A    frame= 1200 fps= 10 q=24.8 size=N/A time=00:00:20.02 bitrate=N/A    frame= 1205 fps= 10 q=24.8 size=N/A time=00:00:20.10 bitrate=N/A    frame= 1210 fps= 10 q=24.8 size=N/A time=00:00:20.18 bitrate=N/A    frame= 1215 fps= 10 q=24.8 size=N/A time=00:00:20.27 bitrate=N/A    frame= 1220 fps= 10 q=24.8 size=N/A time=00:00:20.35 bitrate=N/A    frame= 1225 fps= 10 q=24.8 size=N/A time=00:00:20.43 bitrate=N/A    frame= 1230 fps= 10 q=24.8 size=N/A time=00:00:20.52 bitrate=N/A    frame= 1235 fps= 10 q=24.8 size=N/A time=00:00:20.60 bitrate=N/A    frame= 1240 fps= 10 q=24.8 size=N/A time=00:00:20.68 bitrate=N/A    frame= 1245 fps= 10 q=24.8 size=N/A time=00:00:20.77 bitrate=N/A    frame= 1250 fps= 10 q=24.8 size=N/A time=00:00:20.85 bitrate=N/A    frame= 1255 fps= 10 q=24.8 size=N/A time=00:00:20.93 bitrate=N/A    frame= 1260 fps= 10 q=24.8 size=N/A time=00:00:21.02 bitrate=N/A    frame= 1265 fps= 10 q=24.8 size=N/A time=00:00:21.10 bitrate=N/A    frame= 1270 fps= 10 q=24.8 size=N/A time=00:00:21.18 bitrate=N/A    frame= 1275 fps= 10 q=24.8 size=N/A time=00:00:21.27 bitrate=N/A    frame= 1280 fps= 10 q=24.8 size=N/A time=00:00:21.35 bitrate=N/A    frame= 1285 fps= 10 q=24.8 size=N/A time=00:00:21.43 bitrate=N/A    frame= 1290 fps= 10 q=24.8 size=N/A time=00:00:21.52 bitrate=N/A    frame= 1295 fps= 10 q=24.8 size=N/A time=00:00:21.60 bitrate=N/A    frame= 1300 fps= 10 q=24.8 size=N/A time=00:00:21.68 bitrate=N/A    frame= 1305 fps= 10 q=24.8 size=N/A time=00:00:21.77 bitrate=N/A    frame= 1310 fps= 10 q=24.8 size=N/A time=00:00:21.85 bitrate=N/A    frame= 1315 fps= 10 q=24.8 size=N/A time=00:00:21.93 bitrate=N/A    frame= 1320 fps= 10 q=24.8 size=N/A time=00:00:22.02 bitrate=N/A    frame= 1325 fps= 10 q=24.8 size=N/A time=00:00:22.10 bitrate=N/A    frame= 1330 fps= 10 q=24.8 size=N/A time=00:00:22.18 bitrate=N/A    frame= 1335 fps= 10 q=24.8 size=N/A time=00:00:22.27 bitrate=N/A    frame= 1340 fps= 10 q=24.8 size=N/A time=00:00:22.35 bitrate=N/A    frame= 1345 fps= 10 q=24.8 size=N/A time=00:00:22.43 bitrate=N/A    frame= 1350 fps= 10 q=24.8 size=N/A time=00:00:22.52 bitrate=N/A    frame= 1355 fps= 10 q=24.8 size=N/A time=00:00:22.60 bitrate=N/A    frame= 1360 fps= 10 q=24.8 size=N/A time=00:00:22.68 bitrate=N/A    frame= 1365 fps= 10 q=24.8 size=N/A time=00:00:22.77 bitrate=N/A    frame= 1370 fps= 10 q=24.8 size=N/A time=00:00:22.85 bitrate=N/A    frame= 1375 fps= 10 q=24.8 size=N/A time=00:00:22.93 bitrate=N/A    frame= 1380 fps= 10 q=24.8 size=N/A time=00:00:23.02 bitrate=N/A    frame= 1385 fps= 10 q=24.8 size=N/A time=00:00:23.10 bitrate=N/A    frame= 1390 fps= 10 q=24.8 size=N/A time=00:00:23.18 bitrate=N/A    frame= 1395 fps= 10 q=24.8 size=N/A time=00:00:23.27 bitrate=N/A    frame= 1400 fps= 10 q=24.8 size=N/A time=00:00:23.35 bitrate=N/A    frame= 1405 fps= 10 q=24.8 size=N/A time=00:00:23.44 bitrate=N/A    frame= 1410 fps= 10 q=24.8 size=N/A time=00:00:23.52 bitrate=N/A    frame= 1415 fps= 10 q=24.8 size=N/A time=00:00:23.60 bitrate=N/A    frame= 1420 fps= 10 q=24.8 size=N/A time=00:00:23.69 bitrate=N/A    frame= 1425 fps= 10 q=24.8 size=N/A time=00:00:23.77 bitrate=N/A    frame= 1430 fps= 10 q=24.8 size=N/A time=00:00:23.85 bitrate=N/A    frame= 1435 fps= 10 q=24.8 size=N/A time=00:00:23.94 bitrate=N/A    frame= 1440 fps= 10 q=24.8 size=N/A time=00:00:24.02 bitrate=N/A    frame= 1445 fps= 10 q=24.8 size=N/A time=00:00:24.10 bitrate=N/A    frame= 1450 fps= 10 q=24.8 size=N/A time=00:00:24.19 bitrate=N/A    frame= 1455 fps= 10 q=24.8 size=N/A time=00:00:24.27 bitrate=N/A    frame= 1460 fps= 10 q=24.8 size=N/A time=00:00:24.35 bitrate=N/A    frame= 1465 fps= 10 q=24.8 size=N/A time=00:00:24.44 bitrate=N/A    frame= 1470 fps= 10 q=24.8 size=N/A time=00:00:24.52 bitrate=N/A    frame= 1475 fps= 10 q=24.8 size=N/A time=00:00:24.60 bitrate=N/A    frame= 1480 fps= 10 q=24.8 size=N/A time=00:00:24.69 bitrate=N/A    frame= 1485 fps= 10 q=24.8 size=N/A time=00:00:24.77 bitrate=N/A    frame= 1490 fps= 10 q=24.8 size=N/A time=00:00:24.85 bitrate=N/A    frame= 1495 fps= 10 q=24.8 size=N/A time=00:00:24.94 bitrate=N/A    frame= 1500 fps= 10 q=24.8 size=N/A time=00:00:25.02 bitrate=N/A    frame= 1505 fps= 10 q=24.8 size=N/A time=00:00:25.10 bitrate=N/A    frame= 1510 fps= 10 q=24.8 size=N/A time=00:00:25.19 bitrate=N/A    frame= 1516 fps= 10 q=24.8 size=N/A time=00:00:25.29 bitrate=N/A    frame= 1521 fps= 10 q=24.8 size=N/A time=00:00:25.37 bitrate=N/A    frame= 1526 fps= 10 q=24.8 size=N/A time=00:00:25.45 bitrate=N/A    frame= 1531 fps= 10 q=24.8 size=N/A time=00:00:25.54 bitrate=N/A    frame= 1536 fps= 10 q=24.8 size=N/A time=00:00:25.62 bitrate=N/A    frame= 1542 fps= 10 q=24.8 size=N/A time=00:00:25.72 bitrate=N/A    frame= 1548 fps= 10 q=24.8 size=N/A time=00:00:25.82 bitrate=N/A    frame= 1554 fps= 10 q=24.8 size=N/A time=00:00:25.92 bitrate=N/A    frame= 1560 fps= 10 q=24.8 size=N/A time=00:00:26.02 bitrate=N/A    frame= 1565 fps= 10 q=24.8 size=N/A time=00:00:26.10 bitrate=N/A    frame= 1570 fps= 10 q=24.8 size=N/A time=00:00:26.19 bitrate=N/A    frame= 1575 fps= 10 q=24.8 size=N/A time=00:00:26.27 bitrate=N/A    frame= 1580 fps= 10 q=24.8 size=N/A time=00:00:26.35 bitrate=N/A    frame= 1585 fps= 10 q=24.8 size=N/A time=00:00:26.44 bitrate=N/A    frame= 1590 fps= 10 q=24.8 size=N/A time=00:00:26.52 bitrate=N/A    frame= 1595 fps= 10 q=24.8 size=N/A time=00:00:26.60 bitrate=N/A    frame= 1601 fps= 10 q=24.8 size=N/A time=00:00:26.71 bitrate=N/A    frame= 1607 fps= 10 q=24.8 size=N/A time=00:00:26.81 bitrate=N/A    frame= 1613 fps= 10 q=24.8 size=N/A time=00:00:26.91 bitrate=N/A    frame= 1619 fps= 10 q=24.8 size=N/A time=00:00:27.01 bitrate=N/A    frame= 1625 fps= 10 q=24.8 size=N/A time=00:00:27.11 bitrate=N/A    frame= 1630 fps= 10 q=24.8 size=N/A time=00:00:27.19 bitrate=N/A    frame= 1636 fps= 10 q=24.8 size=N/A time=00:00:27.29 bitrate=N/A    frame= 1642 fps= 10 q=24.8 size=N/A time=00:00:27.39 bitrate=N/A    frame= 1648 fps= 10 q=24.8 size=N/A time=00:00:27.49 bitrate=N/A    frame= 1653 fps= 10 q=24.8 size=N/A time=00:00:27.57 bitrate=N/A    frame= 1658 fps= 10 q=24.8 size=N/A time=00:00:27.66 bitrate=N/A    frame= 1664 fps= 10 q=24.8 size=N/A time=00:00:27.76 bitrate=N/A    frame= 1670 fps= 10 q=24.8 size=N/A time=00:00:27.86 bitrate=N/A    frame= 1675 fps= 10 q=24.8 size=N/A time=00:00:27.94 bitrate=N/A    frame= 1680 fps= 10 q=24.8 size=N/A time=00:00:28.02 bitrate=N/A    frame= 1685 fps= 10 q=24.8 size=N/A time=00:00:28.11 bitrate=N/A    frame= 1691 fps= 10 q=24.8 size=N/A time=00:00:28.21 bitrate=N/A    frame= 1696 fps= 10 q=24.8 size=N/A time=00:00:28.29 bitrate=N/A    frame= 1701 fps= 10 q=24.8 size=N/A time=00:00:28.37 bitrate=N/A    frame= 1706 fps= 10 q=24.8 size=N/A time=00:00:28.46 bitrate=N/A    frame= 1711 fps= 10 q=24.8 size=N/A time=00:00:28.54 bitrate=N/A    frame= 1716 fps= 10 q=24.8 size=N/A time=00:00:28.62 bitrate=N/A    frame= 1721 fps= 10 q=24.8 size=N/A time=00:00:28.71 bitrate=N/A    frame= 1726 fps= 10 q=24.8 size=N/A time=00:00:28.79 bitrate=N/A    frame= 1731 fps= 10 q=24.8 size=N/A time=00:00:28.87 bitrate=N/A    frame= 1736 fps= 10 q=24.8 size=N/A time=00:00:28.96 bitrate=N/A    frame= 1741 fps= 10 q=24.8 size=N/A time=00:00:29.04 bitrate=N/A    frame= 1746 fps= 10 q=24.8 size=N/A time=00:00:29.12 bitrate=N/A    frame= 1752 fps= 10 q=24.8 size=N/A time=00:00:29.22 bitrate=N/A    frame= 1758 fps= 10 q=24.8 size=N/A time=00:00:29.32 bitrate=N/A    frame= 1764 fps= 10 q=24.8 size=N/A time=00:00:29.42 bitrate=N/A    frame= 1770 fps= 10 q=24.8 size=N/A time=00:00:29.52 bitrate=N/A    frame= 1775 fps= 10 q=24.8 size=N/A time=00:00:29.61 bitrate=N/A    frame= 1780 fps= 10 q=24.8 size=N/A time=00:00:29.69 bitrate=N/A    frame= 1786 fps= 10 q=24.8 size=N/A time=00:00:29.79 bitrate=N/A    frame= 1792 fps= 10 q=24.8 size=N/A time=00:00:29.89 bitrate=N/A    frame= 1798 fps= 10 q=24.8 size=N/A time=00:00:29.99 bitrate=N/A    frame= 1804 fps= 10 q=24.8 size=N/A time=00:00:30.09 bitrate=N/A    frame= 1810 fps= 10 q=24.8 size=N/A time=00:00:30.19 bitrate=N/A    frame= 1816 fps= 10 q=24.8 size=N/A time=00:00:30.29 bitrate=N/A    frame= 1821 fps= 10 q=24.8 size=N/A time=00:00:30.38 bitrate=N/A    frame= 1826 fps= 10 q=24.8 size=N/A time=00:00:30.46 bitrate=N/A    frame= 1831 fps= 10 q=24.8 size=N/A time=00:00:30.54 bitrate=N/A    frame= 1836 fps= 10 q=24.8 size=N/A time=00:00:30.63 bitrate=N/A    frame= 1842 fps= 10 q=24.8 size=N/A time=00:00:30.73 bitrate=N/A    frame= 1848 fps= 10 q=24.8 size=N/A time=00:00:30.83 bitrate=N/A    frame= 1854 fps= 10 q=24.8 size=N/A time=00:00:30.93 bitrate=N/A    frame= 1860 fps= 10 q=24.8 size=N/A time=00:00:31.03 bitrate=N/A    frame= 1866 fps= 10 q=24.8 size=N/A time=00:00:31.13 bitrate=N/A    frame= 1872 fps= 10 q=24.8 size=N/A time=00:00:31.23 bitrate=N/A    frame= 1877 fps= 10 q=24.8 size=N/A time=00:00:31.31 bitrate=N/A    frame= 1883 fps= 10 q=24.8 size=N/A time=00:00:31.41 bitrate=N/A    frame= 1889 fps= 10 q=24.8 size=N/A time=00:00:31.51 bitrate=N/A    frame= 1894 fps= 10 q=24.8 size=N/A time=00:00:31.59 bitrate=N/A    frame= 1900 fps= 10 q=24.8 size=N/A time=00:00:31.69 bitrate=N/A    frame= 1906 fps= 10 q=24.8 size=N/A time=00:00:31.79 bitrate=N/A    frame= 1912 fps= 10 q=24.8 size=N/A time=00:00:31.89 bitrate=N/A    frame= 1918 fps= 10 q=24.8 size=N/A time=00:00:31.99 bitrate=N/A    frame= 1924 fps= 10 q=24.8 size=N/A time=00:00:32.09 bitrate=N/A    frame= 1929 fps= 10 q=24.8 size=N/A time=00:00:32.18 bitrate=N/A    frame= 1935 fps= 10 q=24.8 size=N/A time=00:00:32.28 bitrate=N/A    frame= 1941 fps= 10 q=24.8 size=N/A time=00:00:32.38 bitrate=N/A    frame= 1947 fps= 10 q=24.8 size=N/A time=00:00:32.48 bitrate=N/A    frame= 1953 fps= 10 q=24.8 size=N/A time=00:00:32.58 bitrate=N/A    frame= 1959 fps= 10 q=24.8 size=N/A time=00:00:32.68 bitrate=N/A    frame= 1965 fps= 10 q=24.8 size=N/A time=00:00:32.78 bitrate=N/A    frame= 1971 fps= 10 q=24.8 size=N/A time=00:00:32.88 bitrate=N/A    frame= 1977 fps= 10 q=24.8 size=N/A time=00:00:32.98 bitrate=N/A    frame= 1983 fps= 10 q=24.8 size=N/A time=00:00:33.08 bitrate=N/A    frame= 1989 fps= 10 q=24.8 size=N/A time=00:00:33.18 bitrate=N/A    frame= 1995 fps= 10 q=24.8 size=N/A time=00:00:33.28 bitrate=N/A    frame= 2001 fps= 10 q=24.8 size=N/A time=00:00:33.38 bitrate=N/A    frame= 2007 fps= 10 q=24.8 size=N/A time=00:00:33.48 bitrate=N/A    frame= 2013 fps= 10 q=24.8 size=N/A time=00:00:33.58 bitrate=N/A    frame= 2019 fps= 10 q=24.8 size=N/A time=00:00:33.68 bitrate=N/A    frame= 2025 fps= 10 q=24.8 size=N/A time=00:00:33.78 bitrate=N/A    frame= 2031 fps= 10 q=24.8 size=N/A time=00:00:33.88 bitrate=N/A    frame= 2037 fps= 10 q=24.8 size=N/A time=00:00:33.98 bitrate=N/A    frame= 2043 fps= 10 q=24.8 size=N/A time=00:00:34.08 bitrate=N/A    frame= 2049 fps= 10 q=24.8 size=N/A time=00:00:34.18 bitrate=N/A    frame= 2055 fps= 10 q=24.8 size=N/A time=00:00:34.28 bitrate=N/A    frame= 2061 fps= 10 q=24.8 size=N/A time=00:00:34.38 bitrate=N/A    frame= 2067 fps= 10 q=24.8 size=N/A time=00:00:34.48 bitrate=N/A    frame= 2073 fps= 10 q=24.8 size=N/A time=00:00:34.58 bitrate=N/A    frame= 2079 fps= 10 q=24.8 size=N/A time=00:00:34.68 bitrate=N/A    frame= 2085 fps= 10 q=24.8 size=N/A time=00:00:34.78 bitrate=N/A    frame= 2091 fps= 10 q=24.8 size=N/A time=00:00:34.88 bitrate=N/A    frame= 2097 fps= 10 q=24.8 size=N/A time=00:00:34.98 bitrate=N/A    frame= 2103 fps= 10 q=24.8 size=N/A time=00:00:35.08 bitrate=N/A    frame= 2109 fps= 10 q=24.8 size=N/A time=00:00:35.18 bitrate=N/A    frame= 2115 fps= 10 q=24.8 size=N/A time=00:00:35.28 bitrate=N/A    frame= 2121 fps= 10 q=24.8 size=N/A time=00:00:35.38 bitrate=N/A    frame= 2127 fps= 10 q=24.8 size=N/A time=00:00:35.48 bitrate=N/A    frame= 2133 fps= 10 q=24.8 size=N/A time=00:00:35.58 bitrate=N/A    frame= 2139 fps= 10 q=24.8 size=N/A time=00:00:35.68 bitrate=N/A    frame= 2145 fps= 10 q=24.8 size=N/A time=00:00:35.78 bitrate=N/A    frame= 2151 fps= 10 q=24.8 size=N/A time=00:00:35.88 bitrate=N/A    frame= 2157 fps= 10 q=24.8 size=N/A time=00:00:35.98 bitrate=N/A    frame= 2163 fps= 10 q=24.8 size=N/A time=00:00:36.08 bitrate=N/A    frame= 2169 fps= 10 q=24.8 size=N/A time=00:00:36.18 bitrate=N/A    frame= 2175 fps= 10 q=24.8 size=N/A time=00:00:36.28 bitrate=N/A    frame= 2181 fps= 10 q=24.8 size=N/A time=00:00:36.38 bitrate=N/A    frame= 2187 fps= 10 q=24.8 size=N/A time=00:00:36.48 bitrate=N/A    frame= 2193 fps= 10 q=24.8 size=N/A time=00:00:36.58 bitrate=N/A    frame= 2199 fps= 10 q=24.8 size=N/A time=00:00:36.68 bitrate=N/A    frame= 2205 fps= 10 q=24.8 size=N/A time=00:00:36.78 bitrate=N/A    frame= 2211 fps= 10 q=24.8 size=N/A time=00:00:36.88 bitrate=N/A    frame= 2217 fps= 10 q=24.8 size=N/A time=00:00:36.98 bitrate=N/A    frame= 2223 fps= 10 q=24.8 size=N/A time=00:00:37.08 bitrate=N/A    frame= 2229 fps= 10 q=24.8 size=N/A time=00:00:37.18 bitrate=N/A    frame= 2235 fps= 10 q=24.8 size=N/A time=00:00:37.28 bitrate=N/A    frame= 2241 fps= 10 q=24.8 size=N/A time=00:00:37.38 bitrate=N/A    frame= 2247 fps= 10 q=24.8 size=N/A time=00:00:37.48 bitrate=N/A    frame= 2253 fps= 10 q=24.8 size=N/A time=00:00:37.58 bitrate=N/A    frame= 2259 fps= 10 q=24.8 size=N/A time=00:00:37.68 bitrate=N/A    frame= 2263 fps= 10 q=24.8 Lsize=N/A time=00:00:37.75 bitrate=N/A    
video:1191967kB audio:0kB subtitle:0kB other streams:0kB global headers:0kB muxing overhead: unknown
+ turkic load DJI_0578_30m_szarvasragott_traktortaposott._Vaskut_20180602_napos_napraforgo_T3 /home/horvathandras/vatic/vatic/videos/DJI_0578_30m_szarvasragott_traktortaposott._Vaskut_20180602_napos_napraforgo_T3 $'Pozit\303\255vROI' $'Negat\303\255vROI' $'T\303\272r\303\241s' '~Friss' '~1-2Hetes' '~Régebbi' '~Egyéb1' '~Egyéb2' '~Egyéb3' $'R\303\241g\303\241s' '~Friss' '~1-2Hetes' '~Régebbi' '~Egyéb1' '~Egyéb2' '~Egyéb3' $'T\303\266r\303\251s' '~Friss' '~1-2Hetes' '~Régebbi' '~Egyéb1' '~Egyéb2' '~Egyéb3' $'Tapos\303\241s' '~Friss' '~1-2Hetes' '~Régebbi' '~Egyéb1' '~Egyéb2' '~Egyéb3' $'Eg\303\251szs\303\251gesN\303\266v\303\251ny' $'Egy\303\251b1' $'Egy\303\251b2' $'Egy\303\251b3' $'Egy\303\251b4' $'Egy\303\251b5' Bizonytalan $'M\305\261vel\305\221\303\272t' $'Gktapos\303\241s' $'Vet\305\221hiba' $'Sz\303\251ld\303\266nt\303\251s' $'J\303\251gk\303\241r' $'Belv\303\255z' $'Asz\303\241ly' $'Er\303\263zi\303\263' $'Egyszik\305\261Gyom' $'K\303\251tszik\305\261Gyom' $'Egy\303\251bN\303\266vv\303\251delmiPR' --offline --title '$filenameNoDot Video' --length 1000 --description 'vatic annotation'
+ turkic publish --offline
+ mkdir /home/horvathandras/vatic/vatic/public/videothumbnails/DJI_0578_30m_szarvasragott_traktortaposott._Vaskut_20180602_napos_napraforgo_T3
+ cp /home/horvathandras/vatic/vatic/videos/DJI_0578_30m_szarvasragott_traktortaposott._Vaskut_20180602_napos_napraforgo_T3/0/0/31.jpg /home/horvathandras/vatic/vatic/public/videothumbnails/DJI_0578_30m_szarvasragott_traktortaposott._Vaskut_20180602_napos_napraforgo_T3/thumb.jpg
